<svg width="148" height="28" viewBox="0 0 148 28" fill="none" xmlns="http://www.w3.org/2000/svg">
<path d="M26.3194 19.8163C25.1861 19.8163 24.1661 19.583 23.2594 19.1163C22.3661 18.6363 21.6661 17.9763 21.1594 17.1363C20.6527 16.2963 20.3994 15.343 20.3994 14.2763C20.3994 13.2097 20.6527 12.2563 21.1594 11.4163C21.6661 10.5763 22.3661 9.923 23.2594 9.45633C24.1661 8.97633 25.1861 8.73633 26.3194 8.73633C27.4527 8.73633 28.4661 8.97633 29.3594 9.45633C30.2527 9.923 30.9527 10.5763 31.4594 11.4163C31.9661 12.2563 32.2194 13.2097 32.2194 14.2763C32.2194 15.343 31.9661 16.2963 31.4594 17.1363C30.9527 17.9763 30.2527 18.6363 29.3594 19.1163C28.4661 19.583 27.4527 19.8163 26.3194 19.8163ZM26.3194 17.2563C27.1194 17.2563 27.7727 16.9897 28.2794 16.4563C28.7994 15.9097 29.0594 15.183 29.0594 14.2763C29.0594 13.3697 28.7994 12.6497 28.2794 12.1163C27.7727 11.5697 27.1194 11.2963 26.3194 11.2963C25.5194 11.2963 24.8594 11.5697 24.3394 12.1163C23.8194 12.6497 23.5594 13.3697 23.5594 14.2763C23.5594 15.183 23.8194 15.9097 24.3394 16.4563C24.8594 16.9897 25.5194 17.2563 26.3194 17.2563Z" fill="white"/>
<path d="M40.6649 8.73633C41.6649 8.73633 42.5715 8.96967 43.3849 9.43633C44.2115 9.88967 44.8582 10.5363 45.3249 11.3763C45.7915 12.203 46.0249 13.1697 46.0249 14.2763C46.0249 15.383 45.7915 16.3563 45.3249 17.1963C44.8582 18.023 44.2115 18.6697 43.3849 19.1363C42.5715 19.5897 41.6649 19.8163 40.6649 19.8163C39.2915 19.8163 38.2115 19.383 37.4249 18.5163V23.5363H34.3049V8.89633H37.2849V10.1363C38.0582 9.203 39.1849 8.73633 40.6649 8.73633ZM40.1249 17.2563C40.9249 17.2563 41.5782 16.9897 42.0849 16.4563C42.6049 15.9097 42.8649 15.183 42.8649 14.2763C42.8649 13.3697 42.6049 12.6497 42.0849 12.1163C41.5782 11.5697 40.9249 11.2963 40.1249 11.2963C39.3249 11.2963 38.6649 11.5697 38.1449 12.1163C37.6382 12.6497 37.3849 13.3697 37.3849 14.2763C37.3849 15.183 37.6382 15.9097 38.1449 16.4563C38.6649 16.9897 39.3249 17.2563 40.1249 17.2563Z" fill="white"/>
<path d="M54.5935 19.1363C54.2868 19.363 53.9068 19.5363 53.4535 19.6563C53.0135 19.763 52.5535 19.8163 52.0735 19.8163C50.7801 19.8163 49.7868 19.4897 49.0935 18.8363C48.4001 18.183 48.0535 17.223 48.0535 15.9563V6.51633H51.1735V9.13633H53.8335V11.5363H51.1735V15.9163C51.1735 16.3697 51.2868 16.723 51.5135 16.9763C51.7401 17.2163 52.0668 17.3363 52.4935 17.3363C52.9735 17.3363 53.4001 17.203 53.7735 16.9363L54.5935 19.1363Z" fill="white"/>
<path d="M56.3557 8.89633H59.4757V19.6563H56.3557V8.89633ZM57.9157 7.39633C57.3423 7.39633 56.8757 7.22967 56.5157 6.89633C56.1557 6.563 55.9757 6.14967 55.9757 5.65633C55.9757 5.163 56.1557 4.74967 56.5157 4.41633C56.8757 4.083 57.3423 3.91633 57.9157 3.91633C58.489 3.91633 58.9557 4.07633 59.3157 4.39633C59.6757 4.71633 59.8557 5.11633 59.8557 5.59633C59.8557 6.11633 59.6757 6.54967 59.3157 6.89633C58.9557 7.22967 58.489 7.39633 57.9157 7.39633Z" fill="white"/>
<path d="M76.1513 8.73633C77.498 8.73633 78.5646 9.13633 79.3513 9.93633C80.1513 10.723 80.5513 11.9097 80.5513 13.4963V19.6563H77.4313V13.9763C77.4313 13.123 77.2513 12.4897 76.8913 12.0763C76.5446 11.6497 76.0446 11.4363 75.3913 11.4363C74.658 11.4363 74.078 11.6763 73.6513 12.1563C73.2246 12.623 73.0113 13.323 73.0113 14.2563V19.6563H69.8913V13.9763C69.8913 12.283 69.2113 11.4363 67.8513 11.4363C67.1313 11.4363 66.558 11.6763 66.1313 12.1563C65.7046 12.623 65.4913 13.323 65.4913 14.2563V19.6563H62.3713V8.89633H65.3513V10.1363C65.7513 9.683 66.238 9.33633 66.8113 9.09633C67.398 8.85633 68.0379 8.73633 68.7313 8.73633C69.4913 8.73633 70.178 8.88967 70.7913 9.19633C71.4046 9.48967 71.8979 9.923 72.2713 10.4963C72.7113 9.93633 73.2646 9.503 73.9313 9.19633C74.6113 8.88967 75.3513 8.73633 76.1513 8.73633Z" fill="white"/>
<path d="M88.885 17.3163C89.445 17.3163 89.9384 17.2363 90.365 17.0763C90.805 16.903 91.2117 16.6363 91.585 16.2763L93.245 18.0763C92.2317 19.2363 90.7517 19.8163 88.805 19.8163C87.5917 19.8163 86.5184 19.583 85.585 19.1163C84.6517 18.6363 83.9317 17.9763 83.425 17.1363C82.9184 16.2963 82.665 15.343 82.665 14.2763C82.665 13.223 82.9117 12.2763 83.405 11.4363C83.9117 10.583 84.5984 9.923 85.465 9.45633C86.345 8.97633 87.3317 8.73633 88.425 8.73633C89.4517 8.73633 90.385 8.95633 91.225 9.39633C92.065 9.823 92.7317 10.4497 93.225 11.2763C93.7317 12.0897 93.985 13.0563 93.985 14.1763L86.025 15.7163C86.2517 16.2497 86.605 16.6497 87.085 16.9163C87.5784 17.183 88.1784 17.3163 88.885 17.3163ZM88.425 11.0963C87.6384 11.0963 86.9984 11.3497 86.505 11.8563C86.0117 12.363 85.7517 13.063 85.725 13.9563L90.965 12.9363C90.8184 12.3763 90.5184 11.9297 90.065 11.5963C89.6117 11.263 89.065 11.0963 88.425 11.0963Z" fill="white"/>
<path d="M107.042 4.81633V19.6563H104.062V18.4163C103.289 19.3497 102.169 19.8163 100.702 19.8163C99.6889 19.8163 98.7689 19.5897 97.9422 19.1363C97.1289 18.683 96.4889 18.0363 96.0222 17.1963C95.5556 16.3563 95.3222 15.383 95.3222 14.2763C95.3222 13.1697 95.5556 12.1963 96.0222 11.3563C96.4889 10.5163 97.1289 9.86967 97.9422 9.41633C98.7689 8.963 99.6889 8.73633 100.702 8.73633C102.076 8.73633 103.149 9.16967 103.922 10.0363V4.81633H107.042ZM101.242 17.2563C102.029 17.2563 102.682 16.9897 103.202 16.4563C103.722 15.9097 103.982 15.183 103.982 14.2763C103.982 13.3697 103.722 12.6497 103.202 12.1163C102.682 11.5697 102.029 11.2963 101.242 11.2963C100.442 11.2963 99.7822 11.5697 99.2622 12.1163C98.7422 12.6497 98.4822 13.3697 98.4822 14.2763C98.4822 15.183 98.7422 15.9097 99.2622 16.4563C99.7822 16.9897 100.442 17.2563 101.242 17.2563Z" fill="white"/>
<path d="M109.93 8.89633H113.05V19.6563H109.93V8.89633ZM111.49 7.39633C110.917 7.39633 110.45 7.22967 110.09 6.89633C109.73 6.563 109.55 6.14967 109.55 5.65633C109.55 5.163 109.73 4.74967 110.09 4.41633C110.45 4.083 110.917 3.91633 111.49 3.91633C112.063 3.91633 112.53 4.07633 112.89 4.39633C113.25 4.71633 113.43 5.11633 113.43 5.59633C113.43 6.11633 113.25 6.54967 112.89 6.89633C112.53 7.22967 112.063 7.39633 111.49 7.39633Z" fill="white"/>
<path d="M126.866 8.89633V19.6563H123.885V18.4163C123.112 19.3497 121.992 19.8163 120.526 19.8163C119.512 19.8163 118.592 19.5897 117.766 19.1363C116.952 18.683 116.312 18.0363 115.845 17.1963C115.379 16.3563 115.146 15.383 115.146 14.2763C115.146 13.1697 115.379 12.1963 115.845 11.3563C116.312 10.5163 116.952 9.86967 117.766 9.41633C118.592 8.963 119.512 8.73633 120.526 8.73633C121.899 8.73633 122.972 9.16967 123.745 10.0363V8.89633H126.866ZM121.066 17.2563C121.852 17.2563 122.506 16.9897 123.026 16.4563C123.546 15.9097 123.806 15.183 123.806 14.2763C123.806 13.3697 123.546 12.6497 123.026 12.1163C122.506 11.5697 121.852 11.2963 121.066 11.2963C120.266 11.2963 119.605 11.5697 119.086 12.1163C118.566 12.6497 118.306 13.3697 118.306 14.2763C118.306 15.183 118.566 15.9097 119.086 16.4563C119.605 16.9897 120.266 17.2563 121.066 17.2563Z" fill="white"/>
<path fill-rule="evenodd" clip-rule="evenodd" d="M142.516 0.333252L143.42 1.53067C146.061 5.03179 147.611 9.39187 147.611 14.1008C147.611 18.8097 146.061 23.1698 143.42 26.6709L142.516 27.8683L140.121 26.0614L141.025 24.864C143.283 21.8707 144.611 18.1419 144.611 14.1008C144.611 10.0597 143.283 6.33086 141.025 3.33754L140.121 2.14013L142.516 0.333252ZM137.826 5.0006L138.726 6.2006C140.371 8.39417 141.359 11.1382 141.359 14.1006C141.359 17.0631 140.371 19.807 138.726 22.0006L137.826 23.2006L135.426 21.4006L136.326 20.2006C137.597 18.5053 138.359 16.3882 138.359 14.1006C138.359 11.8131 137.597 9.69591 136.326 8.0006L135.426 6.80059L137.826 5.0006ZM132.8 8.23154L133.7 9.43154C134.672 10.7277 135.257 12.3499 135.257 14.1008C135.257 15.8517 134.672 17.4739 133.7 18.77L132.8 19.97L130.4 18.17L131.3 16.97C131.898 16.1721 132.257 15.1768 132.257 14.1008C132.257 13.0248 131.898 12.0294 131.3 11.2315L130.4 10.0315L132.8 8.23154Z" fill="white"/>
<path fill-rule="evenodd" clip-rule="evenodd" d="M5.09492 0L4.19148 1.19741C1.54991 4.69854 0 9.05862 0 13.7675C0 18.4764 1.54991 22.8365 4.19148 26.3376L5.09492 27.535L7.48974 25.7282L6.5863 24.5307C4.32787 21.5374 3 17.8086 3 13.7675C3 9.72642 4.32787 5.99761 6.5863 3.00429L7.48974 1.80688L5.09492 0ZM9.78547 4.66734L8.88547 5.86734C7.24029 8.06092 6.25212 10.8049 6.25212 13.7674C6.25212 16.7298 7.24029 19.4738 8.88547 21.6674L9.78547 22.8674L12.1855 21.0674L11.2855 19.8674C10.014 18.1721 9.25212 16.0549 9.25212 13.7674C9.25212 11.4798 10.014 9.36266 11.2855 7.66734L12.1855 6.46734L9.78547 4.66734ZM14.8111 7.89829L13.9111 9.09829C12.939 10.3944 12.3547 12.0166 12.3547 13.7675C12.3547 15.5184 12.939 17.1406 13.9111 18.4367L14.8111 19.6367L17.2111 17.8368L16.3111 16.6368C15.7127 15.8389 15.3547 14.8435 15.3547 13.7675C15.3547 12.6915 15.7127 11.6962 16.3111 10.8983L17.2111 9.69828L14.8111 7.89829Z" fill="white"/>
</svg>
